HIERARCHY
ROOT joint_Root
{
	OFFSET 0.0 0.0 0.0
	CHANNELS 6 Xposition Yposition Zposition Zrotation Xrotation Yrotation 
	JOINT Hips
	{
		OFFSET 4.5925 91.4895 -427.239
		CHANNELS 6 Xposition Yposition Zposition Zrotation Xrotation Yrotation 
		JOINT Spine
		{
			OFFSET 15.7357 0.0 0.0
			CHANNELS 6 Xposition Yposition Zposition Zrotation Xrotation Yrotation 
			JOINT Chest
			{
				OFFSET 8.98455 -0.406207 0.0
				CHANNELS 6 Xposition Yposition Zposition Zrotation Xrotation Yrotation 
				JOINT Neck
				{
					OFFSET 16.3773 0.0 0.0
					CHANNELS 6 Xposition Yposition Zposition Zrotation Xrotation Yrotation 
					JOINT Head
					{
						OFFSET 6.45672 0.0 0.0
						CHANNELS 6 Xposition Yposition Zposition Zrotation Xrotation Yrotation 
						End Site
						{
							OFFSET 0.0 0.0 0.0
						}
					}
				}
				JOINT Shoulder_L
				{
					OFFSET 12.9942 -0.242716 4.98039
					CHANNELS 6 Xposition Yposition Zposition Zrotation Xrotation Yrotation 
					JOINT UpperArm_L
					{
						OFFSET 5.34809 0.0 0.0
						CHANNELS 6 Xposition Yposition Zposition Zrotation Xrotation Yrotation 
						JOINT LowerArm_L
						{
							OFFSET 24.3286 1.87007e-05 0.0
							CHANNELS 6 Xposition Yposition Zposition Zrotation Xrotation Yrotation 
							JOINT Hand_L
							{
								OFFSET 22.2916 0.0 0.0
								CHANNELS 6 Xposition Yposition Zposition Zrotation Xrotation Yrotation 
								End Site
								{
									OFFSET 0.0 0.0 0.0
								}
							}
						}
					}
				}
				JOINT Shoulder_R
				{
					OFFSET 12.9945 -0.242716 -4.98039
					CHANNELS 6 Xposition Yposition Zposition Zrotation Xrotation Yrotation 
					JOINT UpperArm_R
					{
						OFFSET -5.34813 0.0 0.0
						CHANNELS 6 Xposition Yposition Zposition Zrotation Xrotation Yrotation 
						JOINT LowerArm_R
						{
							OFFSET -24.3289 0.000322201 0.0
							CHANNELS 6 Xposition Yposition Zposition Zrotation Xrotation Yrotation 
							JOINT Hand_R
							{
								OFFSET -22.2915 -0.000108084 0.0
								CHANNELS 6 Xposition Yposition Zposition Zrotation Xrotation Yrotation 
								End Site
								{
									OFFSET 0.0 0.0 0.0
								}
							}
						}
					}
				}
			}
		}
		JOINT UpperLeg_L
		{
			OFFSET -2.19248 -6.46944 0.0
			CHANNELS 6 Xposition Yposition Zposition Zrotation Xrotation Yrotation 
			JOINT LowerLeg_L
			{
				OFFSET 39.0811 0.0 -1.23785e-05
				CHANNELS 6 Xposition Yposition Zposition Zrotation Xrotation Yrotation 
				JOINT Foot_L
				{
					OFFSET 40.9854 0.0 -1.26872e-05
					CHANNELS 6 Xposition Yposition Zposition Zrotation Xrotation Yrotation 
					JOINT Toes_L
					{
						OFFSET 11.7543 0.0 0.0
						CHANNELS 6 Xposition Yposition Zposition Zrotation Xrotation Yrotation 
						End Site
						{
							OFFSET 0.0 0.0 0.0
						}
					}
				}
			}
		}
		JOINT UpperLeg_R
		{
			OFFSET -2.19251 6.46944 0.0
			CHANNELS 6 Xposition Yposition Zposition Zrotation Xrotation Yrotation 
			JOINT LowerLeg_R
			{
				OFFSET -39.0811 -0.00228153 -0.0401928
				CHANNELS 6 Xposition Yposition Zposition Zrotation Xrotation Yrotation 
				JOINT Foot_R
				{
					OFFSET -40.9854 0.0 0.0
					CHANNELS 6 Xposition Yposition Zposition Zrotation Xrotation Yrotation 
					JOINT Toes_R
					{
						OFFSET -11.7543 0.0 0.0
						CHANNELS 6 Xposition Yposition Zposition Zrotation Xrotation Yrotation 
						End Site
						{
							OFFSET 0.0 0.0 0.0
						}
					}
				}
			}
		}
	}
}
MOTION
Frames:	4
Frame Time:	0.0333333
0.000000 0.000000 0.000000 0.000000 0.000000 -0.000000 97.525500 89.784200 153.876000 -76.314200 59.006400 173.886000 15.735700 0.000005 -0.000001 82.445200 84.226000 -82.783200 8.984550 -0.406207 -0.000000 3.678360 -1.504210 -0.626861 16.377300 -0.000001 -0.000001 -0.610711 8.562410 -0.544092 6.456720 -0.000001 -0.000000 -4.809280 15.399900 -1.847700 12.994200 -0.242716 4.980390 -90.445700 1.627810 -74.685900 5.348090 -0.000007 -0.000001 -73.155600 34.873600 -11.683400 24.328600 0.000019 0.000005 2.627680 12.155200 -12.293000 22.291600 -0.000001 0.000005 11.075600 5.002470 7.262730 12.994500 -0.242716 -4.980390 88.628000 8.792580 -81.095700 -5.348130 -0.000001 -0.000004 -58.309400 28.541200 -26.123300 -24.328900 0.000322 -0.000009 -0.318330 -0.651512 -25.957600 -22.291500 -0.000108 -0.000004 17.470500 5.396880 -2.835070 -2.192480 -6.469440 -0.000000 -178.832000 -18.182300 -21.059000 39.081100 -0.000007 -0.000012 0.084370 -0.042491 63.266300 40.985400 -0.000006 -0.000013 5.225970 0.912579 -66.964200 11.754300 -0.000000 0.000003 -0.006718 -0.077231 -19.720600 -2.192510 6.469440 -0.000001 179.731000 8.794580 175.588000 -39.081100 -0.002282 -0.040193 0.017633 -0.018471 37.841000 -40.985400 0.000008 0.000006 7.945270 17.168900 -68.487800 -11.754300 -0.000006 -0.000006 -0.024178 -0.189418 -24.320800
0.000000 0.000000 0.000000 0.000000 0.000000 -0.000000 99.211300 90.288000 151.910000 -74.059700 60.712400 171.371000 15.735700 0.000005 -0.000001 82.433100 84.442700 -82.845800 8.984550 -0.406207 -0.000000 3.247530 -1.445710 -0.783642 16.377300 -0.000001 -0.000001 -1.347790 9.688020 -0.578500 6.456720 -0.000001 -0.000000 -5.138060 17.209200 -2.234550 12.994200 -0.242716 4.980390 -90.364100 1.376810 -75.187300 5.348090 -0.000007 -0.000001 -73.243500 33.992100 -10.949800 24.328600 0.000019 0.000005 1.847410 12.083200 -8.763130 22.291600 -0.000001 0.000005 12.693300 4.991090 7.507910 12.994500 -0.242716 -4.980390 88.826100 7.898680 -81.519400 -5.348130 -0.000001 -0.000004 -56.464400 28.982500 -30.929700 -24.328900 0.000322 -0.000009 -0.457811 -0.750905 -31.318800 -22.291500 -0.000108 -0.000004 16.703500 5.397210 -2.847240 -2.192480 -6.469440 -0.000000 -178.664000 -21.969200 -22.075600 39.081100 -0.000007 -0.000012 0.075974 -0.054578 54.305600 40.985400 -0.000006 -0.000013 5.096400 -0.226305 -68.611000 11.754300 -0.000000 0.000003 -0.006933 -0.079100 -19.796800 -2.192510 6.469440 -0.000001 179.315000 9.105590 176.848000 -39.081100 -0.002282 -0.040193 0.023717 -0.027423 36.686700 -40.985400 0.000008 0.000006 8.119350 19.891000 -66.216800 -11.754300 -0.000006 -0.000006 -0.041064 -0.264323 -27.434000
0.000000 0.000000 0.000000 0.000000 0.000000 -0.000000 100.956000 90.327700 149.931000 -71.554000 61.538500 168.689000 15.735700 0.000005 -0.000001 80.359100 84.641300 -80.777600 8.984550 -0.406207 -0.000000 2.794880 -1.775060 -0.792837 16.377300 -0.000001 -0.000001 -1.973230 10.476300 -0.303243 6.456720 -0.000001 -0.000000 -5.432350 18.681100 -2.335370 12.994200 -0.242716 4.980390 -90.348500 1.385610 -75.881000 5.348090 -0.000007 -0.000001 -72.215200 35.256400 -11.654800 24.328600 0.000019 0.000005 1.417740 14.821300 -5.530740 22.291600 -0.000001 0.000005 12.418200 4.983500 7.669930 12.994500 -0.242716 -4.980390 88.940900 7.330310 -81.755400 -5.348130 -0.000001 -0.000004 -54.216900 29.006800 -34.611400 -24.328900 0.000322 -0.000009 -0.083631 -0.107815 -37.950000 -22.291500 -0.000108 -0.000004 17.287000 5.405780 -3.124730 -2.192480 -6.469440 -0.000000 -178.794000 -24.871900 -22.605100 39.081100 -0.000007 -0.000012 0.046782 -0.048028 44.245100 40.985400 -0.000006 -0.000013 5.989970 -7.535000 -68.064300 11.754300 -0.000000 0.000003 -0.006602 -0.076221 -19.679400 -2.192510 6.469440 -0.000001 179.152000 9.402440 177.741000 -39.081100 -0.002282 -0.040193 0.031916 -0.038461 36.662800 -40.985400 0.000008 0.000006 8.122540 21.704000 -64.938600 -11.754300 -0.000006 -0.000006 -0.058221 -0.325949 -30.027600
0.000000 0.000000 0.000000 0.000000 0.000000 -0.000000 102.995000 89.906700 147.593000 -68.631100 62.321900 166.101000 15.735700 0.000005 -0.000001 78.881100 84.800700 -79.286300 8.984550 -0.406207 -0.000000 2.431940 -1.984890 -0.767491 16.377300 -0.000001 -0.000001 -2.190830 10.900500 0.152493 6.456720 -0.000001 -0.000000 -5.616970 19.809900 -1.876550 12.994200 -0.242716 4.980390 -90.345100 1.439810 -76.518900 5.348090 -0.000007 -0.000001 -70.548400 37.406300 -13.139200 24.328600 0.000019 0.000005 1.076860 18.910200 -3.321810 22.291600 -0.000001 0.000005 10.546400 4.978820 7.765000 12.994500 -0.242716 -4.980390 88.983700 7.039000 -81.763300 -5.348130 -0.000001 -0.000004 -52.004700 28.681600 -36.979900 -24.328900 0.000322 -0.000009 0.993398 0.981897 -45.302000 -22.291500 -0.000108 -0.000004 18.590100 5.419500 -3.578490 -2.192480 -6.469440 -0.000000 -178.726000 -28.906600 -22.616900 39.081100 -0.000007 -0.000012 0.004265 -0.005968 35.543200 40.985400 -0.000006 -0.000013 7.549720 -15.469800 -64.299800 11.754300 -0.000000 0.000003 -0.005510 -0.066329 -19.275900 -2.192510 6.469440 -0.000001 178.972000 8.722960 178.857000 -39.081100 -0.002282 -0.040193 0.038889 -0.046019 37.728800 -40.985400 0.000008 0.000006 7.956890 22.943800 -64.380400 -11.754300 -0.000006 -0.000006 -0.081889 -0.397194 -33.071400
